<?xml version="1.0" encoding="UTF-8" standalone="no"?>
<!-- Created with Inkscape (http://www.inkscape.org/) -->

<svg
   width="103mm"
   height="29mm"
   viewBox="0 0 103 29"
   version="1.1"
   id="svg5"
   xmlns="http://www.w3.org/2000/svg"
   xmlns:svg="http://www.w3.org/2000/svg">
  <defs
     id="defs2" />
  <g
     id="layer1">
    <g
       aria-label="Espresso"
       id="text236"
       style="font-size:28.5604px;line-height:1.25;letter-spacing:0px;word-spacing:0px;fill:#615141;stroke-width:0.714012">
      <path
         d="m 42.477673,10.551295 q 0,-0.342725 -0.456967,-0.571208 -0.456966,-0.2570436 -1.056734,-0.2570436 -0.599769,0 -1.170977,0.2856036 0.971054,0.885373 2.14203,0.885373 0.257044,0 0.399846,-0.114242 0.142802,-0.142802 0.142802,-0.228483 z m 1.342339,-4.7695868 0.05712,-0.7711308 q 0,-0.6283288 -0.485526,-1.1709764 -0.456967,-0.571208 -1.256658,-0.571208 -1.370899,0 -2.484755,1.2280972 -1.113855,1.2280972 -1.113855,2.6275568 0,1.3708992 0.71401,2.3133924 1.228097,-0.5426476 2.284832,-0.5426476 1.056734,0 1.685063,0.3712852 0.656889,0.3427248 0.656889,1.056735 0,0.71401 -0.71401,1.056735 -0.685449,0.342724 -1.542261,0.342724 -1.599383,0 -2.913161,-0.885372 -0.68545,0.71401 -1.113856,1.685064 -0.399845,0.971053 -0.399845,1.799305 0,1.685063 1.085295,3.084523 1.085295,1.39946 2.8846,1.39946 3.769973,0 6.140486,-4.96951 0.799692,-1.627943 0.999614,-1.627943 0.228484,0 0.228484,0.228483 0,1.142416 -1.42802,3.455809 -1.39946,2.284832 -3.055963,3.198765 -1.627943,0.885372 -4.027017,0.885372 -2.370513,0 -3.741412,-1.39946 -1.370899,-1.399459 -1.370899,-3.484368 0,-1.3709 0.799691,-2.627557 0.828252,-1.285218 2.11347,-2.199151 -1.342339,-1.1138556 -1.342339,-2.6846776 0,-2.1705904 1.685063,-3.6557312 1.685064,-1.5137012 4.084138,-1.5137012 1.570822,0 2.627556,0.8282516 1.085296,0.7996912 1.085296,1.9135468 0,0.6283288 -0.371286,1.0281744 -0.371285,0.3998456 -0.942493,0.3998456 -0.828251,0 -0.828251,-0.7996912 z"
         style="font-family:Cookie;-inkscape-font-specification:Cookie"
         id="path299" />
      <path
         d="m 50.960135,10.808339 0.05712,-0.428406 q 0,-0.5140876 -0.599768,-0.5140876 -0.571208,0 -1.113856,0.7711306 -0.542647,0.742571 -0.542647,1.228097 0,0.485527 0.05712,0.771131 0.05712,0.285604 0.114242,0.485527 0.08568,0.171362 0.257044,0.428406 0.171362,0.257044 0.257043,0.371285 l 0.314165,0.399846 q 0.199922,0.285604 0.285604,0.371285 1.48514,-1.228097 3.541489,-2.741798 0.114242,-0.08568 0.257044,-0.08568 0.285604,0 0.285604,0.314165 0,0.314164 -0.257044,0.485527 -1.827865,1.170976 -3.455808,2.541875 0.628329,0.913933 0.628329,1.999228 0,1.085295 -0.828252,1.856426 -0.828252,0.771131 -2.11347,0.771131 -1.285218,0 -1.285218,-1.228097 0,-0.885373 1.884987,-2.713238 -0.142802,-0.171363 -0.514087,-0.542648 -0.371286,-0.399845 -0.571208,-0.628329 -0.171363,-0.228483 -0.428406,-0.599768 -0.456967,-0.71401 -0.456967,-1.542262 0,-1.685063 1.085295,-2.7132376 1.085296,-1.0567348 2.313393,-1.0567348 0.771131,0 1.199537,0.428406 0.428406,0.3998456 0.428406,0.8282514 0,0.971054 -0.456967,0.971054 -0.342725,0 -0.342725,-0.228483 z m -1.827865,5.626398 q -1.142416,1.142416 -1.142416,1.856426 0,0.68545 0.71401,0.68545 0.428406,0 0.71401,-0.342725 0.628329,-0.856812 -0.285604,-2.199151 z"
         style="font-family:Cookie;-inkscape-font-specification:Cookie"
         id="path301" />
      <path
         d="m 53.559138,10.665537 q 0.314164,-0.371286 0.999614,-0.9424936 0.685449,-0.5997684 1.085295,-0.5997684 0.399845,0 0.399845,1.142416 0,1.113856 -0.599768,2.199151 -0.114242,0.514087 -0.171362,1.485141 0.828251,-2.256272 1.656503,-3.398688 0.828251,-1.142416 1.999228,-1.142416 1.199537,0 2.084909,1.085295 0.885372,1.056735 0.885372,3.370127 0,2.284832 -1.313778,4.055577 -1.285218,1.770745 -3.398688,1.770745 -1.085295,0 -2.19915,-0.799691 0,5.455036 -0.628329,8.311076 -0.05712,0.257044 -0.771131,0.856812 -0.68545,0.628329 -0.999614,0.628329 -0.342725,0 -0.485527,-0.456966 -0.142802,-0.456967 -0.142802,-0.856812 0,-2.941722 1.199537,-7.568506 0.199923,-2.684678 0.257044,-5.883443 0.08568,-3.198765 0.142802,-3.255885 z m 3.798533,7.996912 q 0.828251,0 1.713624,-1.142416 0.885372,-1.170977 0.885372,-2.85604 0,-1.713624 -0.485527,-2.713238 -0.456966,-1.028175 -1.256657,-1.028175 -1.370899,0 -3.113084,5.68352 -0.05712,0.799691 -0.05712,1.256657 0.799692,0.799692 2.313393,0.799692 z"
         style="font-family:Cookie;-inkscape-font-specification:Cookie"
         id="path303" />
      <path
         d="m 65.440281,12.093557 1.570822,-0.171363 q 0.228483,0 0.399846,0.257044 0.171362,0.257043 0.171362,0.542647 0,0.285604 -0.199923,1.942108 -0.171362,1.656503 -0.171362,2.627556 0,0.942494 0.171362,0.942494 0.485527,-0.02856 1.342339,-1.199537 0.856812,-1.199537 1.685064,-3.055963 0.856812,-1.856426 1.028174,-1.856426 0.199923,0 0.199923,0.228483 0,0.799691 -0.828252,2.541876 -2.256271,4.798147 -3.798533,4.798147 -1.113855,0 -1.685063,-0.456966 -0.199923,-0.199923 -0.199923,-2.484755 0,-2.284832 0.485527,-3.912775 -1.656504,0 -2.313393,-1.056735 -0.342725,-0.542647 -0.342725,-1.228097 0,-0.6854496 0.285604,-1.1995368 0.285604,-0.5140872 0.799692,-0.5140872 0.542647,0 0.971053,0.571208 0.456967,0.5426476 0.456967,1.228097 0,0.68545 -0.399846,1.370899 0.114242,0.08568 0.371285,0.08568 z"
         style="font-family:Cookie;-inkscape-font-specification:Cookie"
         id="path305" />
      <path
         d="m 73.722772,19.690623 q -1.599382,0 -2.541875,-1.199537 -0.942494,-1.228097 -0.942494,-2.770359 0,-3.113083 1.313779,-4.712466 1.313778,-1.599382 3.398687,-1.599382 0.971054,0 1.599383,0.5426476 0.628329,0.5140874 0.628329,1.4280204 0,1.713624 -1.456581,2.8846 -1.42802,1.142416 -3.512929,1.199537 0.114242,1.113855 0.74257,1.942107 0.65689,0.799691 1.513702,0.799691 0.856812,0 1.542261,-0.399845 0.68545,-0.399846 1.256658,-1.142416 1.199537,-1.570822 2.056349,-3.57005 0.228483,-0.514088 0.342724,-0.742571 0.142802,-0.228483 0.285604,-0.228483 0.171363,0 0.171363,0.228483 0,1.42802 -1.742185,4.28406 -1.884986,3.055963 -4.655345,3.055963 z m -1.513701,-4.912389 q 1.685064,-0.285604 2.456194,-1.085295 0.799692,-0.799691 0.799692,-2.084909 0,-1.285218 -0.828252,-1.285218 -0.999614,0 -1.685064,1.399459 -0.685449,1.3709 -0.74257,3.055963 z"
         style="font-family:Cookie;-inkscape-font-specification:Cookie"
         id="path307" />
      <path
         d="m 82.833518,10.808339 0.05712,-0.428406 q 0,-0.5140876 -0.599769,-0.5140876 -0.571208,0 -1.113855,0.7711306 -0.542648,0.742571 -0.542648,1.228097 0,0.485527 0.05712,0.771131 0.05712,0.285604 0.114242,0.485527 0.08568,0.171362 0.257043,0.428406 0.171363,0.257044 0.257044,0.371285 l 0.314164,0.399846 q 0.199923,0.285604 0.285604,0.371285 1.485141,-1.228097 3.54149,-2.741798 0.114241,-0.08568 0.257043,-0.08568 0.285604,0 0.285604,0.314165 0,0.314164 -0.257043,0.485527 -1.827866,1.170976 -3.455809,2.541875 0.628329,0.913933 0.628329,1.999228 0,1.085295 -0.828251,1.856426 -0.828252,0.771131 -2.11347,0.771131 -1.285218,0 -1.285218,-1.228097 0,-0.885373 1.884986,-2.713238 -0.142802,-0.171363 -0.514087,-0.542648 -0.371285,-0.399845 -0.571208,-0.628329 -0.171362,-0.228483 -0.428406,-0.599768 -0.456966,-0.71401 -0.456966,-1.542262 0,-1.685063 1.085295,-2.7132376 1.085295,-1.0567348 2.313392,-1.0567348 0.771131,0 1.199537,0.428406 0.428406,0.3998456 0.428406,0.8282514 0,0.971054 -0.456966,0.971054 -0.342725,0 -0.342725,-0.228483 z m -1.827866,5.626398 q -1.142416,1.142416 -1.142416,1.856426 0,0.68545 0.71401,0.68545 0.428406,0 0.71401,-0.342725 0.628329,-0.856812 -0.285604,-2.199151 z"
         style="font-family:Cookie;-inkscape-font-specification:Cookie"
         id="path309" />
      <path
         d="m 88.774089,10.808339 0.05712,-0.428406 q 0,-0.5140876 -0.599769,-0.5140876 -0.571208,0 -1.113855,0.7711306 -0.542648,0.742571 -0.542648,1.228097 0,0.485527 0.05712,0.771131 0.05712,0.285604 0.114241,0.485527 0.08568,0.171362 0.257044,0.428406 0.171362,0.257044 0.257044,0.371285 l 0.314164,0.399846 q 0.199923,0.285604 0.285604,0.371285 1.485141,-1.228097 3.54149,-2.741798 0.114241,-0.08568 0.257043,-0.08568 0.285604,0 0.285604,0.314165 0,0.314164 -0.257043,0.485527 -1.827866,1.170976 -3.455809,2.541875 0.628329,0.913933 0.628329,1.999228 0,1.085295 -0.828252,1.856426 -0.828251,0.771131 -2.113469,0.771131 -1.285218,0 -1.285218,-1.228097 0,-0.885373 1.884986,-2.713238 -0.142802,-0.171363 -0.514087,-0.542648 -0.371285,-0.399845 -0.571208,-0.628329 -0.171362,-0.228483 -0.428406,-0.599768 -0.456966,-0.71401 -0.456966,-1.542262 0,-1.685063 1.085295,-2.7132376 1.085295,-1.0567348 2.313392,-1.0567348 0.771131,0 1.199537,0.428406 0.428406,0.3998456 0.428406,0.8282514 0,0.971054 -0.456966,0.971054 -0.342725,0 -0.342725,-0.228483 z m -1.827866,5.626398 q -1.142416,1.142416 -1.142416,1.856426 0,0.68545 0.71401,0.68545 0.428406,0 0.71401,-0.342725 0.628329,-0.856812 -0.285604,-2.199151 z"
         style="font-family:Cookie;-inkscape-font-specification:Cookie"
         id="path311" />
      <path
         d="m 99.427122,13.350214 q 1.142418,-0.371285 1.570818,-0.628329 0.45697,-0.285604 0.68545,-0.428406 l 0.34273,-0.199922 q 0.1428,-0.08568 0.22848,-0.08568 0.22848,0 0.22848,0.257044 0,0.257044 -0.88537,0.913933 -0.88537,0.628329 -2.199149,1.142416 -0.199922,2.399073 -1.513701,3.884214 -1.313778,1.485141 -3.741412,1.485141 -1.770745,0 -2.713238,-1.39946 -0.942493,-1.42802 -0.942493,-3.313006 0,-1.913547 1.113855,-3.59861 1.142416,-1.685064 2.913161,-1.685064 0.799691,-0.571208 1.884986,-0.571208 1.113856,0 2.056349,1.170976 0.942493,1.170977 0.971054,3.055963 z m -1.856426,1.456581 -1.028175,0.05712 q -1.313778,0 -2.227711,-0.77113 -0.913933,-0.799692 -0.913933,-1.742185 0,-0.942493 0.314165,-1.627943 -1.228097,0.971054 -1.228097,3.827094 0,1.370899 0.571208,2.627557 0.571208,1.228097 1.799305,1.228097 1.228097,0 1.913547,-1.028174 0.685449,-1.056735 0.799691,-2.570436 z m -1.770745,-4.741027 q -0.456966,0 -0.71401,0.428406 -0.257044,0.399846 -0.257044,0.885373 0,1.056734 0.71401,1.713624 0.742571,0.656889 1.713624,0.656889 h 0.342725 q -0.05712,-1.39946 -0.485527,-2.541876 -0.399845,-1.142416 -1.313778,-1.142416 z"
         style="font-family:Cookie;-inkscape-font-specification:Cookie"
         id="path313" />
    </g>
    <path
       id="path1326"
       style="fill:#ffffff;fill-opacity:1;stroke:#615141;stroke-width:1.8;stroke-linecap:round;stroke-dasharray:none;stroke-opacity:1;paint-order:stroke fill markers"
       d="M 12.490206,1.275191 C 6.2849984,1.272221 1.5318564,2.9990207 1.5318324,5.1254807 c 0.0017,0.0262 0.0041,0.0524 0.0073,0.0785 -0.0092,0.18123 -0.01518,0.36264 -0.0179,0.54412 0.0028,5.6506203 3.13037,11.9361003 7.925593,14.0987103 1.0393746,0.430292 2.0769056,0.550796 3.1072556,0.552806 1.027535,-0.002 2.090349,-0.112628 3.034191,-0.551816 4.765469,-2.17814 7.866726,-8.44714 7.869257,-14.0738503 -0.0026,-0.18392 -0.0086,-0.36775 -0.0179,-0.55141 0.0042,-0.0324 0.0071,-0.0647 0.0089,-0.0971 C 23.426759,2.4850947 17.86884,1.277765 12.490206,1.275191 Z" />
    <ellipse
       style="fill:#ca8949;fill-opacity:1;stroke:#615141;stroke-width:1.19221;stroke-linecap:round;stroke-dasharray:none;stroke-opacity:1;paint-order:stroke fill markers"
       id="path1951"
       cx="12.558867"
       cy="5.1517692"
       rx="9.1512041"
       ry="2.7462702" />
    <path
       id="path234-5-9"
       style="fill:#975b20;fill-opacity:1;stroke:none;stroke-width:0.288291;stroke-linecap:round;stroke-dasharray:none;stroke-opacity:1"
       d="m 6.9757744,3.8730607 c -0.03234,-0.66393 -2.678481,0.33566 -2.786089,1.20417 -0.112132,0.90502 1.556108,1.76872 4.724292,2.16944 4.5904256,0.5806 7.0664996,-0.0503 6.7871896,-0.12042 -0.801623,-0.20123 -1.140212,-0.12789 -3.785398,-0.23699 -3.9240626,-0.16184 -5.8928466,-1.26078 -5.9259776,-1.82443 -0.03338,-0.56787 1.012725,-0.64279 0.985983,-1.19177 z" />
    <path
       style="fill:none;fill-rule:evenodd;stroke:#e7b079;stroke-width:1.41031;stroke-linecap:round;stroke-dasharray:none;stroke-opacity:1;paint-order:stroke fill markers"
       id="path8992"
       d="m 85.84523,110.25788 c 0.343235,0.40469 -0.376173,0.66233 -0.67262,0.57048 -0.803353,-0.24892 -0.848778,-1.30784 -0.468339,-1.91572 0.680517,-1.08734 2.216302,-1.09509 3.158818,-0.3662 1.383181,1.06968 1.349866,3.13751 0.264058,4.40192 -1.44721,1.68526 -4.063285,1.60832 -5.645016,0.16192 -0.365302,-0.33405 -0.672869,-0.72992 -0.909192,-1.16473"
       transform="matrix(-1.3637941,0.05626627,0.02387526,0.4079088,126.55735,-45.300063)" />
    <path
       style="fill:none;stroke:#615141;stroke-width:0.8;stroke-linecap:butt;stroke-linejoin:miter;stroke-dasharray:none;stroke-opacity:1"
       d="m 23.573201,8.5016907 c 2.001711,-2.09343 3.848973,-1.96897 4.867891,-0.19165 0.946135,1.6504 -0.0036,3.8677603 -1.74126,5.2299503 -1.873478,1.46864 -3.56966,1.89983 -5.686746,2.25801"
       id="path3089" />
    <path
       style="fill:none;fill-opacity:1;stroke:#615141;stroke-width:0.8;stroke-linecap:butt;stroke-linejoin:miter;stroke-dasharray:none;stroke-opacity:1"
       d="m 23.238903,10.717911 c 0.751526,-0.7640603 1.525548,-0.8162703 2.019292,-0.3025 0.458495,0.47706 0.281463,1.32005 -0.764913,2.13467 -0.721171,0.56143 -1.518096,0.95121 -2.385549,1.17006"
       id="path3089-3" />
    <path
       id="path1934-5"
       style="fill:#cccccc;fill-opacity:1;stroke:none;stroke-width:0.982798;stroke-linecap:round;stroke-dasharray:none;stroke-opacity:1"
       d="m 2.4652554,7.2830407 c 0.823017,6.3606903 3.98284,9.5791303 7.057751,11.7040603 -2.84782,-4.55527 -3.720597,-7.95882 -3.950846,-10.2497503 -1.422649,-0.49884 -1.892159,-0.74643 -3.106905,-1.45431 z" />
  </g>
</svg>
